<svg xmlns="http://www.w3.org/2000/svg" viewBox="0 0 32 32">
  <defs>
    <linearGradient id="bg" x1="0" y1="0" x2="32" y2="32" gradientUnits="userSpaceOnUse">
      <stop offset="0%" stop-color="#0C1222"/>
      <stop offset="100%" stop-color="#0F172A"/>
    </linearGradient>
  </defs>
  <rect width="32" height="32" rx="6" fill="url(#bg)"/>
  <g shape-rendering="crispEdges">
    <g fill="#0EA5E9" opacity="0.6">
      <rect x="10" y="3" width="1" height="1"/>
      <rect x="21" y="3" width="1" height="1"/>
      <rect x="11" y="4" width="1" height="1"/>
      <rect x="20" y="4" width="1" height="1"/>
    </g>
    <g fill="#94A3B8" opacity="0.6">
      <rect x="9" y="11" width="1" height="1"/>
      <rect x="9" y="12" width="1" height="1"/>
      <rect x="9" y="13" width="1" height="1"/>
      <rect x="10" y="13" width="1" height="1"/>
    </g>
    <g fill="#D1FAE5" opacity="0.7">
      <rect x="13" y="11" width="1" height="1"/>
      <rect x="14" y="11" width="1" height="1"/>
      <rect x="17" y="11" width="1" height="1"/>
      <rect x="18" y="11" width="1" height="1"/>
      <rect x="13" y="12" width="1" height="1"/>
      <rect x="15" y="12" width="1" height="1"/>
      <rect x="16" y="12" width="1" height="1"/>
      <rect x="18" y="12" width="1" height="1"/>
      <rect x="15" y="13" width="1" height="1"/>
      <rect x="16" y="13" width="1" height="1"/>
    </g>
    <g fill="#0EA5E9" opacity="0.8">
      <rect x="10" y="4" width="1" height="1"/>
      <rect x="21" y="4" width="1" height="1"/>
      <rect x="11" y="5" width="1" height="1"/>
      <rect x="20" y="5" width="1" height="1"/>
    </g>
    <g fill="#F59E0B" opacity="0.8">
      <rect x="13" y="16" width="1" height="1"/>
      <rect x="14" y="16" width="1" height="1"/>
      <rect x="15" y="16" width="1" height="1"/>
      <rect x="17" y="16" width="1" height="1"/>
      <rect x="18" y="16" width="1" height="1"/>
      <rect x="19" y="16" width="1" height="1"/>
    </g>
    <rect x="22" y="12" width="1" height="1" fill="#065F46"/>
    <rect x="22" y="13" width="1" height="1" fill="#065F46"/>
    <rect x="9" y="14" width="1" height="1" fill="#065F46"/>
    <rect x="22" y="14" width="1" height="1" fill="#065F46"/>
    <rect x="9" y="15" width="1" height="1" fill="#065F46"/>
    <rect x="12" y="5" width="1" height="1" fill="#0D9488"/>
    <rect x="18" y="5" width="1" height="1" fill="#0D9488"/>
    <rect x="19" y="5" width="1" height="1" fill="#0D9488"/>
    <rect x="11" y="6" width="1" height="1" fill="#0D9488"/>
    <rect x="19" y="6" width="1" height="1" fill="#0D9488"/>
    <rect x="20" y="6" width="1" height="1" fill="#0D9488"/>
    <rect x="10" y="7" width="1" height="1" fill="#0D9488"/>
    <rect x="11" y="7" width="1" height="1" fill="#0D9488"/>
    <rect x="15" y="7" width="1" height="1" fill="#0D9488"/>
    <rect x="16" y="7" width="1" height="1" fill="#0D9488"/>
    <rect x="20" y="7" width="1" height="1" fill="#0D9488"/>
    <rect x="21" y="7" width="1" height="1" fill="#0D9488"/>
    <rect x="10" y="8" width="1" height="1" fill="#0D9488"/>
    <rect x="11" y="8" width="1" height="1" fill="#0D9488"/>
    <rect x="15" y="8" width="1" height="1" fill="#0D9488"/>
    <rect x="16" y="8" width="1" height="1" fill="#0D9488"/>
    <rect x="20" y="8" width="1" height="1" fill="#0D9488"/>
    <rect x="21" y="8" width="1" height="1" fill="#0D9488"/>
    <rect x="10" y="9" width="1" height="1" fill="#0D9488"/>
    <rect x="13" y="9" width="1" height="1" fill="#0D9488"/>
    <rect x="14" y="9" width="1" height="1" fill="#0D9488"/>
    <rect x="17" y="9" width="1" height="1" fill="#0D9488"/>
    <rect x="18" y="9" width="1" height="1" fill="#0D9488"/>
    <rect x="21" y="9" width="1" height="1" fill="#0D9488"/>
    <rect x="10" y="10" width="1" height="1" fill="#0D9488"/>
    <rect x="11" y="10" width="1" height="1" fill="#0D9488"/>
    <rect x="13" y="10" width="1" height="1" fill="#0D9488"/>
    <rect x="14" y="10" width="1" height="1" fill="#0D9488"/>
    <rect x="17" y="10" width="1" height="1" fill="#0D9488"/>
    <rect x="18" y="10" width="1" height="1" fill="#0D9488"/>
    <rect x="20" y="10" width="1" height="1" fill="#0D9488"/>
    <rect x="21" y="10" width="1" height="1" fill="#0D9488"/>
    <rect x="10" y="11" width="1" height="1" fill="#0D9488"/>
    <rect x="21" y="11" width="1" height="1" fill="#0D9488"/>
    <rect x="10" y="12" width="1" height="1" fill="#0D9488"/>
    <rect x="21" y="12" width="1" height="1" fill="#0D9488"/>
    <rect x="11" y="13" width="1" height="1" fill="#0D9488"/>
    <rect x="20" y="13" width="1" height="1" fill="#0D9488"/>
    <rect x="12" y="14" width="1" height="1" fill="#0D9488"/>
    <rect x="19" y="14" width="1" height="1" fill="#0D9488"/>
    <rect x="20" y="14" width="1" height="1" fill="#0D9488"/>
    <rect x="12" y="15" width="1" height="1" fill="#0D9488"/>
    <rect x="13" y="15" width="1" height="1" fill="#0D9488"/>
    <rect x="15" y="15" width="1" height="1" fill="#0D9488"/>
    <rect x="16" y="15" width="1" height="1" fill="#0D9488"/>
    <rect x="18" y="15" width="1" height="1" fill="#0D9488"/>
    <rect x="19" y="15" width="1" height="1" fill="#0D9488"/>
    <rect x="10" y="5" width="1" height="1" fill="#0EA5E9"/>
    <rect x="13" y="5" width="1" height="1" fill="#0EA5E9"/>
    <rect x="17" y="5" width="1" height="1" fill="#0EA5E9"/>
    <rect x="21" y="5" width="1" height="1" fill="#0EA5E9"/>
    <rect x="12" y="6" width="1" height="1" fill="#0EA5E9"/>
    <rect x="14" y="6" width="1" height="1" fill="#0EA5E9"/>
    <rect x="15" y="6" width="1" height="1" fill="#0EA5E9"/>
    <rect x="16" y="6" width="1" height="1" fill="#0EA5E9"/>
    <rect x="18" y="6" width="1" height="1" fill="#0EA5E9"/>
    <rect x="11" y="9" width="1" height="1" fill="#0EA5E9"/>
    <rect x="20" y="9" width="1" height="1" fill="#0EA5E9"/>
    <rect x="11" y="11" width="1" height="1" fill="#0EA5E9"/>
    <rect x="20" y="11" width="1" height="1" fill="#0EA5E9"/>
    <rect x="11" y="12" width="1" height="1" fill="#0EA5E9"/>
    <rect x="20" y="12" width="1" height="1" fill="#0EA5E9"/>
    <rect x="12" y="13" width="1" height="1" fill="#0EA5E9"/>
    <rect x="19" y="13" width="1" height="1" fill="#0EA5E9"/>
    <rect x="13" y="14" width="1" height="1" fill="#0EA5E9"/>
    <rect x="18" y="14" width="1" height="1" fill="#0EA5E9"/>
    <rect x="14" y="15" width="1" height="1" fill="#0EA5E9"/>
    <rect x="17" y="15" width="1" height="1" fill="#0EA5E9"/>
    <rect x="14" y="5" width="1" height="1" fill="#10B981"/>
    <rect x="15" y="5" width="1" height="1" fill="#10B981"/>
    <rect x="16" y="5" width="1" height="1" fill="#10B981"/>
    <rect x="13" y="6" width="1" height="1" fill="#10B981"/>
    <rect x="17" y="6" width="1" height="1" fill="#10B981"/>
    <rect x="12" y="9" width="1" height="1" fill="#10B981"/>
    <rect x="19" y="9" width="1" height="1" fill="#10B981"/>
    <rect x="12" y="10" width="1" height="1" fill="#10B981"/>
    <rect x="19" y="10" width="1" height="1" fill="#10B981"/>
    <rect x="12" y="11" width="1" height="1" fill="#10B981"/>
    <rect x="15" y="11" width="1" height="1" fill="#10B981"/>
    <rect x="16" y="11" width="1" height="1" fill="#10B981"/>
    <rect x="19" y="11" width="1" height="1" fill="#10B981"/>
    <rect x="12" y="12" width="1" height="1" fill="#10B981"/>
    <rect x="14" y="12" width="1" height="1" fill="#10B981"/>
    <rect x="17" y="12" width="1" height="1" fill="#10B981"/>
    <rect x="19" y="12" width="1" height="1" fill="#10B981"/>
    <rect x="13" y="13" width="1" height="1" fill="#10B981"/>
    <rect x="14" y="13" width="1" height="1" fill="#10B981"/>
    <rect x="17" y="13" width="1" height="1" fill="#10B981"/>
    <rect x="18" y="13" width="1" height="1" fill="#10B981"/>
    <rect x="14" y="14" width="1" height="1" fill="#10B981"/>
    <rect x="15" y="14" width="1" height="1" fill="#10B981"/>
    <rect x="16" y="14" width="1" height="1" fill="#10B981"/>
    <rect x="17" y="14" width="1" height="1" fill="#10B981"/>
    <rect x="14" y="7" width="1" height="1" fill="#1E293B"/>
    <rect x="17" y="7" width="1" height="1" fill="#1E293B"/>
    <rect x="13" y="8" width="1" height="1" fill="#1E293B"/>
    <rect x="14" y="8" width="1" height="1" fill="#1E293B"/>
    <rect x="17" y="8" width="1" height="1" fill="#1E293B"/>
    <rect x="18" y="8" width="1" height="1" fill="#1E293B"/>
    <rect x="9" y="10" width="1" height="1" fill="#94A3B8"/>
    <rect x="10" y="14" width="1" height="1" fill="#CBD5E1"/>
    <rect x="11" y="14" width="1" height="1" fill="#CBD5E1"/>
    <rect x="15" y="10" width="1" height="1" fill="#D97706"/>
    <rect x="16" y="10" width="1" height="1" fill="#D97706"/>
    <rect x="15" y="9" width="1" height="1" fill="#F59E0B"/>
    <rect x="16" y="9" width="1" height="1" fill="#F59E0B"/>
    <rect x="12" y="7" width="1" height="1" fill="#FEF3C7"/>
    <rect x="13" y="7" width="1" height="1" fill="#FEF3C7"/>
    <rect x="18" y="7" width="1" height="1" fill="#FEF3C7"/>
    <rect x="19" y="7" width="1" height="1" fill="#FEF3C7"/>
    <rect x="12" y="8" width="1" height="1" fill="#FEF3C7"/>
    <rect x="19" y="8" width="1" height="1" fill="#FEF3C7"/>
  </g>
</svg>
